# xmcd
# 
# Track frame offsets:
#     150
#     8631
#     25276
#     47759
#     67630
#     80006
#     95754
#     116569
#     129306
#     148186
# 
# Disc length: 2487
# 
# Revision: 0
# Processed by: cddbd v1.5.2PL0 Copyright (c) Steve Scherf et al.
# Submitted via: fre:ac v1.0.31
# 
DISCID=7f09b50a
DTITLE=Arise - The Reckoning
DYEAR=2010
DGENRE=Death Metal
TTITLE0=Adrenaline Rush
TTITLE1=No Memory Of Light
TTITLE2=Blindead
TTITLE3=They Are Coming For You
TTITLE4=Pitch Black
TTITLE5=The Reckoning
TTITLE6=Reclaiming The Soul
TTITLE7=The Fury
TTITLE8=Dead Silence
TTITLE9=End Of Days
EXTD=
EXTT0=
EXTT1=
EXTT2=
EXTT3=
EXTT4=
EXTT5=
EXTT6=
EXTT7=
EXTT8=
EXTT9=
PLAYORDER=
